<svg width="20" height="20" viewBox="0 0 20 20" fill="none" xmlns="http://www.w3.org/2000/svg">
<path d="M5.43717 17.5C5.10384 17.5 4.81217 17.375 4.56217 17.125C4.31217 16.875 4.18717 16.5833 4.18717 16.25V4.375H3.33301V3.125H7.24967V2.5H12.7497V3.125H16.6663V4.375H15.8122V16.25C15.8122 16.5833 15.6872 16.875 15.4372 17.125C15.1872 17.375 14.8955 17.5 14.5622 17.5H5.43717ZM14.5622 4.375H5.43717V16.25H14.5622V4.375ZM7.64551 14.4583H8.89551V6.14583H7.64551V14.4583ZM11.1038 14.4583H12.3538V6.14583H11.1038V14.4583ZM5.43717 4.375V16.25V4.375Z" fill="#45414f"/>
</svg>
